<svg xmlns="http://www.w3.org/2000/svg" width="114" height="50" viewBox="0 0 114 50">
    <g fill="none" fill-rule="nonzero">
        <path fill="#00306A" d="M45.056 14.058c1.347 0 2.262-.532 2.285-1.628l.002-.035c.02-.942-.719-1.525-2.068-1.525h-3.02l-.067 3.188h2.868zm.508 5.074c1.432 0 2.315-.567 2.338-1.647l.002-.033c.02-1.01-.77-1.61-2.424-1.61H42.15l-.07 3.29h3.483zm-5.358-9.07A1.073 1.073 0 0 1 41.288 9h4.3c1.364 0 2.434.377 3.1 1.063.52.532.777 1.183.762 1.988v.037c-.03 1.438-.867 2.21-1.764 2.673 1.39.478 2.346 1.287 2.313 2.913l-.002.035C49.951 19.852 48.17 21 45.507 21h-4.47c-.597 0-1.048-.46-1.037-1.063l.206-9.874zM58.849 16.54l.002-.034c.034-1.518-1.127-2.776-2.816-2.776-1.723 0-2.85 1.242-2.886 2.745v.031c-.034 1.506 1.127 2.762 2.798 2.762 1.739 0 2.868-1.242 2.902-2.728m-7.848 0v-.034C51.055 14.04 53.233 12 56.111 12c2.876 0 4.944 2.009 4.888 4.475v.031C60.945 18.958 58.765 21 55.87 21c-2.86 0-4.926-2.009-4.87-4.46M62.135 13.033c.01-.566.422-1.016.95-1.016.525 0 .936.45.924 1.016l-.017.901c.456-1.1 1.277-1.934 2.098-1.934.59 0 .922.416.91 1-.01.534-.342.884-.763.966-1.335.25-2.272 1.35-2.312 3.432L63.875 20c-.011.548-.438 1.001-.965 1.001-.513 0-.922-.435-.91-1.001l.135-6.966zM69.982 17.19l-.002.036c-.033 1.777 1.08 2.944 2.41 2.944 1.313 0 2.504-1.185 2.537-2.944l.002-.036c.037-1.779-1.11-2.944-2.424-2.944-1.347 0-2.488 1.116-2.523 2.944zm6.807 3.66c-.013.595-.458 1.048-.993 1.048-.553 0-.982-.453-.971-1.047l.013-.575c-.65.957-1.56 1.724-2.954 1.724-2.012 0-3.943-1.724-3.883-4.774v-.036c.06-3.048 2.025-4.772 4.068-4.772 1.41 0 2.29.748 2.89 1.618l.077-3.991c.012-.592.46-1.045.994-1.045.552 0 .983.453.97 1.045l-.211 10.806zM81.002 15.033l.002-.034C81.07 11.752 83.65 9 87.194 9c1.763 0 2.931.416 3.992 1.177.197.148.408.43.4.83a1.048 1.048 0 0 1-1.045 1.01c-.27 0-.469-.116-.634-.232-.744-.546-1.56-.911-2.838-.911-2.165 0-3.851 1.871-3.899 4.093V15c-.051 2.388 1.507 4.146 3.91 4.146 1.11 0 2.123-.348 2.858-.88l.045-2.17h-2.316c-.505 0-.917-.383-.907-.88.01-.499.44-.894.94-.894h3.281c.586 0 1.03.446 1.019 1.028l-.067 3.098c-.013.582-.258.994-.749 1.293A7.688 7.688 0 0 1 86.972 21c-3.679 0-6.042-2.585-5.97-5.967M97.824 10.375a.863.863 0 0 1 .139-.378l.98-1.503c.19-.307.46-.494.812-.494.532 0 1.192.341 1.185.666-.004.189-.124.358-.295.513l-1.136 1.092c-.408.378-.728.462-1.194.462-.282 0-.495-.136-.491-.358m2.217 7.193l.011-.617a5.435 5.435 0 0 0-1.99-.359c-1.297 0-2.075.563-2.094 1.505l-.002.033c-.017.871.722 1.367 1.689 1.367 1.33 0 2.363-.787 2.386-1.929m-6.04.646v-.032c.041-1.949 1.542-2.904 3.687-2.904.984 0 1.68.153 2.359.375l.005-.222c.027-1.281-.726-1.964-2.142-1.964-.767 0-1.4.135-1.955.359-.117.035-.217.05-.318.05a.83.83 0 0 1-.831-.855.921.921 0 0 1 .566-.818 7.465 7.465 0 0 1 2.841-.53c1.315 0 2.292.359 2.894 1.007.636.65.916 1.607.892 2.787l-.09 4.441a.995.995 0 0 1-1.003.99c-.583 0-.974-.41-.967-.872l.01-.342C99.334 20.42 98.405 21 97.057 21c-1.648 0-3.094-.974-3.056-2.786M104.06 9.964l-.002.1c-.01.588.45.98 1.059.98.608 0 1.086-.392 1.097-.98l.002-.1c.01-.587-.45-.964-1.059-.964-.608 0-1.084.377-1.097.964zm.078 3.221L104 20.018c-.01.557.402.982.917.982.531 0 .964-.425.974-.982l.136-6.833c.01-.555-.402-.997-.933-.997-.533 0-.946.442-.956.997zM107.368 19.965c-.214-.115-.375-.364-.368-.693a.823.823 0 0 1 .831-.806.85.85 0 0 1 .43.117c.835.559 1.71.838 2.508.838.863 0 1.37-.36 1.38-.939v-.033c.018-.673-.91-.903-1.933-1.217-1.287-.362-2.722-.888-2.685-2.551v-.032c.034-1.644 1.433-2.649 3.178-2.649.93 0 1.906.264 2.743.708.28.149.472.412.465.756-.01.459-.38.806-.848.806a.772.772 0 0 1-.396-.098c-.705-.362-1.431-.593-2.047-.593-.78 0-1.236.364-1.247.855v.035c-.013.641.927.905 1.95 1.234 1.271.394 2.704.97 2.67 2.534v.032c-.039 1.826-1.487 2.731-3.313 2.731a5.943 5.943 0 0 1-3.318-1.035M40 35.313l.224-10.626a.706.706 0 0 1 .685-.687h7.485a.6.6 0 0 1 .606.617.632.632 0 0 1-.634.618H41.57l-.085 4.095h6.023c.342 0 .612.293.606.618a.635.635 0 0 1-.634.62h-6.023l-.085 4.197h6.88c.344 0 .614.273.606.616a.63.63 0 0 1-.631.619h-7.57a.668.668 0 0 1-.657-.687M51.164 27.759a.688.688 0 0 1 .678-.66c.383 0 .675.29.667.66l-.02.948c.614-.948 1.573-1.707 3.129-1.707 2.181 0 3.426 1.419 3.38 3.495l-.104 4.847a.674.674 0 0 1-.678.658c-.383 0-.675-.288-.667-.658l.099-4.527c.035-1.618-.853-2.633-2.442-2.633-1.553 0-2.73 1.099-2.766 2.736l-.095 4.424a.664.664 0 0 1-.678.658c-.385 0-.675-.288-.667-.658l.164-7.583zM66.744 31.017c-.098-1.565-.955-2.933-2.644-2.933-1.475 0-2.613 1.251-2.81 2.933h5.454zM64.135 36c-2.326 0-4.191-1.816-4.134-4.482v-.034C60.051 29 61.813 27 64.155 27c2.506 0 3.892 2.083 3.844 4.367a.606.606 0 0 1-.603.599h-6.129c.142 1.866 1.416 2.916 2.924 2.916 1.047 0 1.828-.416 2.46-.999.1-.08.217-.15.365-.15a.54.54 0 0 1 .339.967c-.816.783-1.778 1.3-3.22 1.3zM70.155 27.697c.006-.355.295-.664.64-.664.365 0 .64.292.632.664l-.034 1.65C72.053 27.886 73.31 27 74.385 27c.38 0 .622.29.615.663a.659.659 0 0 1-.575.664c-1.657.204-3.04 1.48-3.091 4.013l-.06 2.997c-.01.358-.28.663-.644.663a.628.628 0 0 1-.63-.663l.155-7.64zM82.663 31.261l.002-.035c.037-1.842-1.51-3.042-3.189-3.042-1.674 0-3.084 1.182-3.123 3.024v.035c-.037 1.809 1.356 3.06 2.998 3.06 1.676 0 3.276-1.233 3.312-3.042M75.6 37.94a.606.606 0 0 1-.33-.558c.005-.295.303-.59.61-.59.12 0 .203.032.288.085a5.427 5.427 0 0 0 3.11.974c1.948 0 3.237-1.095 3.281-3.199l.021-1.062c-.792 1.043-1.885 1.895-3.51 1.895-2.12 0-4.123-1.616-4.069-4.206l.002-.036C75.055 28.618 77.141 27 79.245 27c1.659 0 2.72.837 3.418 1.809l.02-1.027c.007-.366.287-.678.664-.678.379 0 .659.312.653.678l-.14 6.835c-.03 1.39-.46 2.453-1.193 3.181C81.862 38.6 80.676 39 79.272 39a6.718 6.718 0 0 1-3.672-1.06M85.374 38.739c-.19-.09-.378-.263-.374-.578.007-.332.269-.58.541-.58.109 0 .206.036.302.072.236.087.474.158.891.158.767 0 1.222-.51 1.693-1.612l.067-.14-3.3-8.024a1.029 1.029 0 0 1-.073-.368c.009-.366.287-.667.637-.667.336 0 .507.227.612.524l2.741 7.116 2.694-7.13c.1-.283.28-.51.6-.51.335 0 .6.3.595.667a1.245 1.245 0 0 1-.07.334l-3.391 8.441C88.784 38.32 87.976 39 86.727 39c-.545 0-.942-.105-1.353-.261M13.655 37c-.642 0-1.09-.374-1.374-1.144-2.003-5.401-1.652-11.574 1.015-17.854 2.521-5.941 7.09-11.764 12.873-16.393C27.443.585 28.639 0 29.45 0c.405 0 .717.143.952.433 3.014 3.718 4.56 8.054 4.596 12.89.033 4.59-1.281 9.398-3.912 14.288-.923 1.714-3.388 5.019-6.11 5.257a2.6 2.6 0 0 1-.238.011c-.467 0-.775-.133-.943-.411-.49-.807.14-2.75.744-3.871 3.07-5.707 2.876-11.872-.547-17.365l-.272-.439-.331.399c-4.553 5.5-6.199 13.008-4.098 18.684.314.846-.16 2.321-1.239 3.85C16.713 35.624 14.861 37 13.655 37"/>
        <path fill="#5DB2DF" d="M39.712 50h-.041c-7.861-.153-15.057-2.809-20.812-7.683l-.227-.19-.231.185c-5.01 3.994-10.77 6.462-17.125 7.336-.095.014-.188.02-.278.02-.633 0-.947-.299-.993-.947-.123-1.746 1.949-5.195 4.199-5.516 5.594-.891 10.485-3.236 14.153-6.779.551-.533 1.629-1.426 2.655-1.426.443 0 .831.166 1.186.505 5.31 5.136 12.392 7.93 20.482 8.09.896.015 1.33.462 1.32 1.365-.02 1.85-2.144 5.04-4.288 5.04"/>
    </g>
</svg>
