<?xml version="1.0" encoding="UTF-8"?>
<svg id="Layer_1" xmlns="http://www.w3.org/2000/svg" version="1.1" viewBox="0 0 595.28 191.96">
  <!-- Generator: Adobe Illustrator 30.1.0, SVG Export Plug-In . SVG Version: 2.1.1 Build 136)  -->
  <defs>
    <style>
      .st0 {
        fill: #ffffff;
      }

      .st1 {
        fill: #1eb0a5;
      }

      .st2 {
        fill: #fff;
      }

      .st3 {
        fill: #5eead4;
      }
    </style>
  </defs>
  <polygon class="st0" points="374.01 60.54 385.08 60.54 372.55 104.64 361.43 104.54 354.39 80.12 347.24 104.6 336.08 104.58 323.59 60.55 334.64 60.46 342.38 90.57 350.6 60.51 358.13 60.52 366.33 91.02 374.01 60.54"/>
  <path class="st0" d="M274.29,104.47l-9.98.22-17.63-27.36-.19,27.24-9.99.04v-44s8.96-.26,8.96-.26c.36.14,1.53.85,1.88,1.4l16.68,25.91.28-27.12,9.96-.02.03,43.96Z"/>
  <path class="st0" d="M323.56,82.59c0,12.48-10.11,22.59-22.59,22.59s-22.59-10.11-22.59-22.59,10.11-22.59,22.59-22.59,22.59,10.11,22.59,22.59ZM301.09,95.58c4.67.17,7.96-2.3,9.73-6.03,2.09-4.58,2.05-9.8-.15-14.31-1.8-3.67-5.12-5.74-9.2-5.87-4.58-.15-8.39,2.06-10.32,6.24s-1.94,9.31-.2,13.76c1.88,3.81,5.36,6.28,10.15,6.21Z"/>
  <path class="st0" d="M421.2,90.29c-3.05,8.49-11.03,14.18-19.8,14.22l-13.83.06v-44.01s13.02-.05,13.02-.05c8.62-.03,16.51,4.95,20.06,12.87,2.32,5.18,2.62,11.17.55,16.92ZM410.53,88.43c1.67-4.27,1.62-8.86-.5-12.69-2.51-4.54-7.35-6.91-12.42-6.04l.03,25.83c5.91.55,10.37-2.12,12.89-7.1Z"/>
  <polygon class="st0" points="214.04 81.34 234.26 104.4 220.81 104.69 204.6 86.23 204.31 104.61 194.38 104.59 194.37 60.61 204.29 60.44 204.6 78.15 219.64 60.42 231.52 60.66 214.04 81.34"/>
  <path class="st0" d="M453.27,95.81h-16.8s-3.31,8.89-3.31,8.89l-10.64-.37,17.12-42.48c.23-.58,1.17-1.46,1.46-1.45l8.45.15,17.72,43.92-10.65.21-3.35-8.87ZM449.75,86.88l-4.95-12.43-4.94,12.46,9.89-.03Z"/>
  <path class="st0" d="M527.11,95.77l-16.73.05-3.4,8.85-10.62-.17,17.67-43.95h9.4s17.73,43.97,17.73,43.97l-10.72.12-3.33-8.87ZM523.7,86.84l-4.89-12.4-4.96,12.46,9.85-.06Z"/>
  <polygon class="st0" points="486.81 104.52 476.81 104.6 476.74 69.33 466.3 69.26 466.43 60.45 497.27 60.49 497.27 69.27 486.86 69.32 486.81 104.52"/>
  <path class="st3" d="M427.07,135.43c-.61-.01-.75-2.63-.1-2.64l11.59-.1.08,13.29-2.64.25-.27-4.85c-2.1,3.6-5.54,5.09-9.43,5.14-5.17.07-9.87-2.46-11.93-7.23-1.92-4.45-1.78-9.66.67-13.92s7.46-6.41,12.39-5.98c4.13.36,7.79,2.11,9.86,5.95l-2.64,1.5c-3.76-5.4-11.37-6.12-15.79-1.23-2.04,2.26-2.58,5.79-2.34,8.78.41,5.15,4.04,8.8,9.07,9.06s9.3-2.53,9.6-7.84l-8.12-.19Z"/>
  <path class="st3" d="M249.22,132.92c0,7.48-6.06,13.54-13.54,13.54s-13.54-6.06-13.54-13.54,6.06-13.54,13.54-13.54,13.54,6.06,13.54,13.54ZM245.27,135.43c.64-3.63-.02-7.34-2.28-9.81-3.79-4.14-10.46-4.21-14.41-.26-2.3,2.3-2.97,5.86-2.68,9.08.48,5.28,4.42,8.91,9.64,8.95,4.72.04,8.8-2.71,9.73-7.95Z"/>
  <path class="st3" d="M276.67,120.19l.09,25.41c-.54.79-3.33.84-3.86.06l-13.9-20.54-.33,21.07-3.16-.07v-26.24s3.66-.07,3.66-.07l12.57,18.82c.28.42,1.07,1.15,1.61,1.65l.1-19.83c0-.72,3.21-.96,3.22-.26Z"/>
  <path class="st3" d="M406.39,120.19l.09,25.41c-.54.79-3.33.84-3.86.06l-13.9-20.54-.33,21.07-3.16-.07v-26.24s3.66-.07,3.66-.07l12.57,18.82c.28.42,1.07,1.15,1.61,1.65l.1-19.83c0-.72,3.21-.96,3.22-.26Z"/>
  <path class="st3" d="M298,145.78c-5.5,1.82-13.19.18-14.6-5.78,4.04-4.58,3.66,7.07,14.01,2.82.89-.37,2.05-2.26,2.15-3.2.85-7.62-18.15-3.53-15.36-14.99.39-1.6,2.16-3.7,4.23-4.45,5.1-1.86,12.31-.66,14.03,5.31-.78.21-2.52.57-3.01.59-1.27-2.13-3.58-4-6.33-3.94-1.87.04-4.1.85-5.05,2.14-1.3,1.78-.59,4.79,1.34,5.44l4.68,1.59c2.33.79,4.8,1.53,6.85,3.01,1.82,1.32,2.26,4.35,1.81,6.55-.39,1.9-2.33,4.11-4.73,4.91Z"/>
  <path class="st3" d="M197.17,135.79c1.05,5.11,5.17,7.61,9.99,7.58,3.1-.02,6.28-2.15,7.95-4.47.66-.38,2.64.29,3.14.72-1.96,4.07-5.42,6.21-9.76,6.75s-8.62-.69-11.56-3.92c-2.63-2.88-3.55-6.87-3.35-10.77.41-8.09,7.14-13.36,15.04-12.21,4.06.59,7.79,2.54,9.55,6.78-.54.31-2.37.94-2.95.93-1.83-2.75-4.77-4.59-8.08-4.69-4.93-.15-8.98,2.68-9.99,7.58-.31,1.49-.32,4,.03,5.7Z"/>
  <path class="st3" d="M324.99,120.48c0-.85,3-.93,3.24-.44v17.61c0,3.72-2.16,7.02-5.77,8.25-2.25.77-5.29.79-7.61.06-3.46-1.08-5.88-4.36-5.89-7.99l-.06-18.14,3.26.02.16,17.6c.03,3.36,2.51,5.88,5.8,6.02,3.86.16,6.68-2.27,6.72-6.36l.15-16.62Z"/>
  <path class="st3" d="M347.68,143.28c.86.02,1.16,1.95.96,2.95l-12.52.02.02-26.37,3.34.05.07,23.16,8.13.2Z"/>
  <path class="st3" d="M361.17,145.66c0,.84-3.18.7-3.18-.11l-.09-22.66c-1.93-.11-4.9-.24-6.23-.37-.54-.05-.46-2.43-.09-2.85h15.65c.96,0,1.08,2.92.3,2.94l-6.17.21-.18,22.83Z"/>
  <rect class="st3" x="373.29" y="119.64" width="3.32" height="26.6"/>
  <path class="st2" d="M61.8,68.37c0-2.71.43-5.32,1.23-7.76v38.46h-1.23v-30.7Z"/>
  <path class="st2" d="M64.77,56.54c.4-.75.84-1.47,1.31-2.17v44.69h-1.31v-42.52Z"/>
  <path class="st2" d="M67.82,52.1c.42-.49.86-.96,1.31-1.41v48.38h-1.31v-46.97Z"/>
  <path class="st2" d="M70.87,49.1c.43-.35.86-.69,1.31-1.01v50.98h-1.31v-49.97Z"/>
  <path class="st2" d="M73.92,46.94c.43-.26.87-.51,1.31-.74v52.86h-1.31v-52.13Z"/>
  <path class="st2" d="M76.97,45.38c.43-.18.87-.36,1.31-.51v54.2h-1.31v-53.69Z"/>
  <path class="st2" d="M80.03,44.3c.43-.12.87-.23,1.31-.33v55.09h-1.31v-54.76Z"/>
  <path class="st2" d="M83.08,43.65c.43-.07.87-.12,1.31-.16v55.57h-1.31v-55.41Z"/>
  <path class="st2" d="M86.78,43.38c.22,0,.44,0,.65,0v55.68h-1.31v-55.68c.22,0,.44,0,.65,0Z"/>
  <path class="st2" d="M90.49,43.65v55.41h-1.31v-55.57c.44.04.88.09,1.31.16Z"/>
  <path class="st2" d="M92.23,43.97c.44.1.88.21,1.31.33v54.76h-1.31v-55.09Z"/>
  <path class="st2" d="M95.28,44.86c.44.16.88.33,1.31.52v53.68h-1.31v-54.2Z"/>
  <path class="st2" d="M99.65,46.94v52.13h-1.31v-52.86c.45.23.88.47,1.31.73Z"/>
  <path class="st2" d="M101.38,48.08c.45.33.89.66,1.31,1.02v49.97h-1.31v-50.98Z"/>
  <path class="st2" d="M104.45,50.7c.45.45.88.92,1.3,1.4v46.97h-1.31v-48.39s.01.01.02.02Z"/>
  <path class="st2" d="M107.49,54.37c.47.7.91,1.42,1.31,2.16v42.53h-1.31v-44.69Z"/>
  <path class="st2" d="M111.77,68.37v30.7h-1.23v-38.46c.8,2.44,1.23,5.05,1.23,7.76Z"/>
  <path class="st1" d="M63.03,60.61v38.46h-1.23v-30.7c0-2.71.43-5.32,1.23-7.76Z"/>
  <path class="st1" d="M66.08,54.37v44.69h-1.31v-42.52c.4-.75.84-1.47,1.31-2.17Z"/>
  <path class="st1" d="M69.13,50.68v48.38h-1.31v-46.97c.42-.49.86-.96,1.31-1.41Z"/>
  <path class="st1" d="M72.18,48.09v50.98h-1.31v-49.97c.43-.35.86-.69,1.31-1.01Z"/>
  <path class="st1" d="M75.23,46.2v52.86h-1.31v-52.13c.43-.26.87-.51,1.31-.74Z"/>
  <path class="st1" d="M78.28,44.86v54.2h-1.31v-53.69c.43-.18.87-.36,1.31-.51Z"/>
  <path class="st1" d="M81.34,43.98v55.09h-1.31v-54.76c.43-.12.87-.23,1.31-.33Z"/>
  <path class="st1" d="M84.39,43.49v55.57h-1.31v-55.41c.43-.07.87-.12,1.31-.16Z"/>
  <path class="st1" d="M87.44,43.38v55.68h-1.31v-55.68c.22,0,.44,0,.65,0s.44,0,.65,0Z"/>
  <path class="st1" d="M90.49,43.65v55.41h-1.31v-55.57c.44.04.88.09,1.31.16Z"/>
  <path class="st1" d="M93.54,44.31v54.76h-1.31v-55.09c.44.1.88.21,1.31.33Z"/>
  <path class="st1" d="M96.6,45.38v53.68h-1.31v-54.2c.44.16.88.33,1.31.52Z"/>
  <path class="st1" d="M99.65,46.94v52.13h-1.31v-52.86c.45.23.88.47,1.31.73Z"/>
  <path class="st1" d="M102.7,49.1v49.97h-1.31v-50.98c.45.33.89.66,1.31,1.02Z"/>
  <path class="st1" d="M105.75,52.1v46.97h-1.31v-48.39s.01.01.02.02c.45.45.88.92,1.3,1.4Z"/>
  <path class="st1" d="M108.8,56.53v42.53h-1.31v-44.69c.47.7.91,1.42,1.31,2.16Z"/>
  <path class="st1" d="M111.77,68.37v30.7h-1.23v-38.46c.8,2.44,1.23,5.05,1.23,7.76Z"/>
  <path class="st2" d="M147,48.99c2.71,0,5.32.43,7.76,1.23h-38.46v-1.23h30.7Z"/>
  <path class="st2" d="M158.83,51.96c.75.4,1.47.84,2.17,1.31h-44.69v-1.31h42.52Z"/>
  <path class="st2" d="M163.27,55.02c.49.42.96.86,1.41,1.31h-48.38v-1.31h46.97Z"/>
  <path class="st2" d="M166.27,58.07c.35.43.69.86,1.01,1.31h-50.98v-1.31h49.97Z"/>
  <path class="st2" d="M168.43,61.12c.26.43.51.87.74,1.31h-52.86v-1.31h52.13Z"/>
  <path class="st2" d="M169.99,64.17c.18.43.36.87.51,1.31h-54.2v-1.31h53.69Z"/>
  <path class="st2" d="M171.07,67.22c.12.43.23.87.33,1.31h-55.09v-1.31h54.76Z"/>
  <path class="st2" d="M171.72,70.27c.07.43.12.87.16,1.31h-55.57v-1.31h55.41Z"/>
  <path class="st2" d="M171.99,73.98c0,.22,0,.44,0,.65h-55.68v-1.31h55.68c0,.22,0,.44,0,.65Z"/>
  <path class="st2" d="M171.72,77.69h-55.41v-1.31h55.57c-.04.44-.09.88-.16,1.31Z"/>
  <path class="st2" d="M171.4,79.43c-.1.44-.21.88-.33,1.31h-54.76v-1.31h55.09Z"/>
  <path class="st2" d="M170.51,82.48c-.16.44-.33.88-.52,1.31h-53.68v-1.31h54.2Z"/>
  <path class="st2" d="M168.43,86.84h-52.13v-1.31h52.86c-.23.45-.47.88-.73,1.31Z"/>
  <path class="st2" d="M167.29,88.58c-.33.45-.66.89-1.02,1.31h-49.97v-1.31h50.98Z"/>
  <path class="st2" d="M164.67,91.65c-.45.45-.92.88-1.4,1.3h-46.97v-1.31h48.39s-.01.01-.02.02Z"/>
  <path class="st2" d="M161,94.69c-.7.47-1.42.91-2.16,1.31h-42.53v-1.31h44.69Z"/>
  <path class="st2" d="M147,98.97h-30.7v-1.23h38.46c-2.44.8-5.05,1.23-7.76,1.23Z"/>
  <path class="st1" d="M154.76,50.22h-38.46v-1.23h30.7c2.71,0,5.32.43,7.76,1.23Z"/>
  <path class="st1" d="M161,53.28h-44.69v-1.31h42.52c.75.4,1.47.84,2.17,1.31Z"/>
  <path class="st1" d="M164.69,56.33h-48.38v-1.31h46.97c.49.42.96.86,1.41,1.31Z"/>
  <path class="st1" d="M167.28,59.38h-50.98v-1.31h49.97c.35.43.69.86,1.01,1.31Z"/>
  <path class="st1" d="M169.17,62.43h-52.86v-1.31h52.13c.26.43.51.87.74,1.31Z"/>
  <path class="st1" d="M170.51,65.48h-54.2v-1.31h53.69c.18.43.36.87.51,1.31Z"/>
  <path class="st1" d="M171.39,68.53h-55.09v-1.31h54.76c.12.43.23.87.33,1.31Z"/>
  <path class="st1" d="M171.88,71.59h-55.57v-1.31h55.41c.07.43.12.87.16,1.31Z"/>
  <path class="st1" d="M171.99,74.64h-55.68v-1.31h55.68c0,.22,0,.44,0,.65s0,.44,0,.65Z"/>
  <path class="st1" d="M171.72,77.69h-55.41v-1.31h55.57c-.04.44-.09.88-.16,1.31Z"/>
  <path class="st1" d="M171.06,80.74h-54.76v-1.31h55.09c-.1.44-.21.88-.33,1.31Z"/>
  <path class="st1" d="M169.99,83.79h-53.68v-1.31h54.2c-.16.44-.33.88-.52,1.31Z"/>
  <path class="st1" d="M168.43,86.84h-52.13v-1.31h52.86c-.23.45-.47.88-.73,1.31Z"/>
  <path class="st1" d="M166.27,89.9h-49.97v-1.31h50.98c-.33.45-.66.89-1.02,1.31Z"/>
  <path class="st1" d="M163.27,92.95h-46.97v-1.31h48.39s-.01.01-.02.02c-.45.45-.92.88-1.4,1.3Z"/>
  <path class="st1" d="M158.84,96h-42.53v-1.31h44.69c-.7.47-1.42.91-2.16,1.31Z"/>
  <path class="st1" d="M147,98.97h-30.7v-1.23h38.46c-2.44.8-5.05,1.23-7.76,1.23Z"/>
  <path class="st2" d="M165.52,134.34c0,2.71-.43,5.32-1.23,7.76v-38.46h1.23v30.7Z"/>
  <path class="st2" d="M162.55,146.17c-.4.75-.84,1.47-1.31,2.17v-44.69h1.31v42.52Z"/>
  <path class="st2" d="M159.49,150.61c-.42.49-.86.96-1.31,1.41v-48.38h1.31v46.97Z"/>
  <path class="st2" d="M156.44,153.61c-.43.35-.86.69-1.31,1.01v-50.98h1.31v49.97Z"/>
  <path class="st2" d="M153.39,155.77c-.43.26-.87.51-1.31.74v-52.86h1.31v52.13Z"/>
  <path class="st2" d="M150.34,157.33c-.43.18-.87.36-1.31.51v-54.2h1.31v53.69Z"/>
  <path class="st2" d="M147.29,158.41c-.43.12-.87.23-1.31.33v-55.09h1.31v54.76Z"/>
  <path class="st2" d="M144.24,159.06c-.43.07-.87.12-1.31.16v-55.57h1.31v55.41Z"/>
  <path class="st2" d="M140.53,159.33c-.22,0-.44,0-.65,0v-55.68h1.31v55.68c-.22,0-.44,0-.65,0Z"/>
  <path class="st2" d="M136.82,159.06v-55.41h1.31v55.57c-.44-.04-.88-.09-1.31-.16Z"/>
  <path class="st2" d="M135.08,158.73c-.44-.1-.88-.21-1.31-.33v-54.76h1.31v55.09Z"/>
  <path class="st2" d="M132.03,157.85c-.44-.16-.88-.33-1.31-.52v-53.68h1.31v54.2Z"/>
  <path class="st2" d="M127.67,155.77v-52.13h1.31v52.86c-.45-.23-.88-.47-1.31-.73Z"/>
  <path class="st2" d="M125.93,154.63c-.45-.33-.89-.66-1.31-1.02v-49.97h1.31v50.98Z"/>
  <path class="st2" d="M122.86,152.01c-.45-.45-.88-.92-1.3-1.4v-46.97h1.31v48.39s-.01-.01-.02-.02Z"/>
  <path class="st2" d="M119.82,148.34c-.47-.7-.91-1.42-1.31-2.16v-42.53h1.31v44.69Z"/>
  <path class="st2" d="M115.54,134.34v-30.7h1.23v38.46c-.8-2.44-1.23-5.05-1.23-7.76Z"/>
  <path class="st1" d="M164.29,142.1v-38.46h1.23v30.7c0,2.71-.43,5.32-1.23,7.76Z"/>
  <path class="st1" d="M161.23,148.34v-44.69h1.31v42.52c-.4.75-.84,1.47-1.31,2.17Z"/>
  <path class="st1" d="M158.18,152.03v-48.38h1.31v46.97c-.42.49-.86.96-1.31,1.41Z"/>
  <path class="st1" d="M155.13,154.62v-50.98h1.31v49.97c-.43.35-.86.69-1.31,1.01Z"/>
  <path class="st1" d="M152.08,156.51v-52.86h1.31v52.13c-.43.26-.87.51-1.31.74Z"/>
  <path class="st1" d="M149.03,157.84v-54.2h1.31v53.69c-.43.18-.87.36-1.31.51Z"/>
  <path class="st1" d="M145.98,158.73v-55.09h1.31v54.76c-.43.12-.87.23-1.31.33Z"/>
  <path class="st1" d="M142.92,159.22v-55.57h1.31v55.41c-.43.07-.87.12-1.31.16Z"/>
  <path class="st1" d="M139.87,159.32v-55.68h1.31v55.68c-.22,0-.44,0-.65,0s-.44,0-.65,0Z"/>
  <path class="st1" d="M136.82,159.06v-55.41h1.31v55.57c-.44-.04-.88-.09-1.31-.16Z"/>
  <path class="st1" d="M133.77,158.4v-54.76h1.31v55.09c-.44-.1-.88-.21-1.31-.33Z"/>
  <path class="st1" d="M130.72,157.33v-53.68h1.31v54.2c-.44-.16-.88-.33-1.31-.52Z"/>
  <path class="st1" d="M127.67,155.77v-52.13h1.31v52.86c-.45-.23-.88-.47-1.31-.73Z"/>
  <path class="st1" d="M124.61,153.61v-49.97h1.31v50.98c-.45-.33-.89-.66-1.31-1.02Z"/>
  <path class="st1" d="M121.56,150.61v-46.97h1.31v48.39s-.01-.01-.02-.02c-.45-.45-.88-.92-1.3-1.4Z"/>
  <path class="st1" d="M118.51,146.17v-42.53h1.31v44.69c-.47-.7-.91-1.42-1.31-2.16Z"/>
  <path class="st1" d="M115.54,134.34v-30.7h1.23v38.46c-.8-2.44-1.23-5.05-1.23-7.76Z"/>
  <path class="st2" d="M80.31,153.71c-2.71,0-5.32-.43-7.76-1.23h38.46v1.23h-30.7Z"/>
  <path class="st2" d="M68.48,150.74c-.75-.4-1.47-.84-2.17-1.31h44.69v1.31h-42.52Z"/>
  <path class="st2" d="M64.04,147.69c-.49-.42-.96-.86-1.41-1.31h48.38v1.31h-46.97Z"/>
  <path class="st2" d="M61.04,144.64c-.35-.43-.69-.86-1.01-1.31h50.98v1.31h-49.97Z"/>
  <path class="st2" d="M58.88,141.59c-.26-.43-.51-.87-.74-1.31h52.86v1.31h-52.13Z"/>
  <path class="st2" d="M57.32,138.54c-.18-.43-.36-.87-.51-1.31h54.2v1.31h-53.69Z"/>
  <path class="st2" d="M56.25,135.48c-.12-.43-.23-.87-.33-1.31h55.09v1.31h-54.76Z"/>
  <path class="st2" d="M55.59,132.43c-.07-.43-.12-.87-.16-1.31h55.57v1.31h-55.41Z"/>
  <path class="st2" d="M55.32,128.73c0-.22,0-.44,0-.65h55.68v1.31h-55.68c0-.22,0-.44,0-.65Z"/>
  <path class="st2" d="M55.59,125.02h55.41v1.31h-55.57c.04-.44.09-.88.16-1.31Z"/>
  <path class="st2" d="M55.92,123.28c.1-.44.21-.88.33-1.31h54.76v1.31h-55.09Z"/>
  <path class="st2" d="M56.8,120.23c.16-.44.33-.88.52-1.31h53.68v1.31h-54.2Z"/>
  <path class="st2" d="M58.88,115.86h52.13v1.31h-52.86c.23-.45.47-.88.73-1.31Z"/>
  <path class="st2" d="M60.03,114.13c.33-.45.66-.89,1.02-1.31h49.97v1.31h-50.98Z"/>
  <path class="st2" d="M62.64,111.06c.45-.45.92-.88,1.4-1.3h46.97v1.31h-48.39s.01-.01.02-.02Z"/>
  <path class="st2" d="M66.31,108.02c.7-.47,1.42-.91,2.16-1.31h42.53v1.31h-44.69Z"/>
  <path class="st2" d="M80.31,103.74h30.7v1.23h-38.46c2.44-.8,5.05-1.23,7.76-1.23Z"/>
  <path class="st1" d="M72.55,152.48h38.46v1.23h-30.7c-2.71,0-5.32-.43-7.76-1.23Z"/>
  <path class="st1" d="M66.31,149.43h44.69v1.31h-42.52c-.75-.4-1.47-.84-2.17-1.31Z"/>
  <path class="st1" d="M62.62,146.38h48.38v1.31h-46.97c-.49-.42-.96-.86-1.41-1.31Z"/>
  <path class="st1" d="M60.03,143.33h50.98v1.31h-49.97c-.35-.43-.69-.86-1.01-1.31Z"/>
  <path class="st1" d="M58.14,140.28h52.86v1.31h-52.13c-.26-.43-.51-.87-.74-1.31Z"/>
  <path class="st1" d="M56.81,137.23h54.2v1.31h-53.69c-.18-.43-.36-.87-.51-1.31Z"/>
  <path class="st1" d="M55.92,134.17h55.09v1.31h-54.76c-.12-.43-.23-.87-.33-1.31Z"/>
  <path class="st1" d="M55.43,131.12h55.57v1.31h-55.41c-.07-.43-.12-.87-.16-1.31Z"/>
  <path class="st1" d="M55.33,128.07h55.68v1.31h-55.68c0-.22,0-.44,0-.65s0-.44,0-.65Z"/>
  <path class="st1" d="M55.59,125.02h55.41v1.31h-55.57c.04-.44.09-.88.16-1.31Z"/>
  <path class="st1" d="M56.25,121.97h54.76v1.31h-55.09c.1-.44.21-.88.33-1.31Z"/>
  <path class="st1" d="M57.32,118.91h53.68v1.31h-54.2c.16-.44.33-.88.52-1.31Z"/>
  <path class="st1" d="M58.88,115.86h52.13v1.31h-52.86c.23-.45.47-.88.73-1.31Z"/>
  <path class="st1" d="M61.04,112.81h49.97v1.31h-50.98c.33-.45.66-.89,1.02-1.31Z"/>
  <path class="st1" d="M64.04,109.76h46.97v1.31h-48.39s.01-.01.02-.02c.45-.45.92-.88,1.4-1.3Z"/>
  <path class="st1" d="M68.48,106.71h42.53v1.31h-44.69c.7-.47,1.42-.91,2.16-1.31Z"/>
  <path class="st1" d="M80.31,103.74h30.7v1.23h-38.46c2.44-.8,5.05-1.23,7.76-1.23Z"/>
</svg>